<?xml version="1.0" standalone="no"?>
<!DOCTYPE svg PUBLIC "-//W3C//DTD SVG 20010904//EN"
 "http://www.w3.org/TR/2001/REC-SVG-20010904/DTD/svg10.dtd">
<svg version="1.0" xmlns="http://www.w3.org/2000/svg"
 width="300.000000pt" height="269.000000pt" viewBox="0 0 300.000000 269.000000"
 preserveAspectRatio="xMidYMid meet">
<metadata>
Created by potrace 1.10, written by Peter Selinger 2001-2011
</metadata>
<g transform="translate(0.000000,269.000000) scale(0.050000,-0.050000)"
fill="#000000" stroke="none">
<path d="M1952 5352 c17 -45 100 -50 136 -9 30 35 27 37 -58 37 -68 0 -86 -7
-78 -28z"/>
<path d="M2868 5343 c-33 -27 -49 -76 -68 -211 -31 -217 -2 -277 49 -102 18
63 55 136 82 163 54 54 118 187 90 187 -10 0 -22 -11 -27 -25 -7 -20 -14 -20
-35 0 -34 32 -40 31 -91 -12z"/>
<path d="M3205 5355 c3 -72 -8 -115 -36 -144 -18 -17 -23 -31 -12 -31 12 0 59
41 105 90 93 99 136 113 141 45 5 -66 3 -81 -14 -122 -12 -30 -6 -35 33 -30
42 6 49 20 59 112 l10 105 -143 0 c-102 0 -143 -7 -143 -25z"/>
<path d="M3565 5357 c66 -24 75 -111 23 -215 -45 -91 -16 -104 48 -22 129 164
116 261 -35 258 -85 -1 -87 -3 -36 -21z"/>
<path d="M3849 5275 c-1 -151 -13 -218 -50 -275 -18 -27 -38 -66 -45 -85 -7
-19 -29 -35 -48 -35 -20 -1 -58 -18 -86 -40 -27 -22 -71 -39 -96 -40 -25 0
-64 -17 -86 -38 -60 -56 -130 -63 -177 -18 -32 30 -49 33 -81 16 -27 -14 -40
-15 -40 -1 0 12 -18 21 -40 21 -29 0 -40 -13 -40 -48 0 -35 -14 -51 -53 -61
-71 -18 -95 13 -106 136 0 10 -19 13 -40 7 -22 -5 -42 0 -47 13 -4 12 -31 20
-61 18 -29 -3 -53 4 -53 15 0 11 9 20 19 20 11 0 15 14 8 30 -24 63 -71 33
-61 -39 6 -47 0 -72 -19 -79 -15 -6 -26 -18 -25 -26 8 -50 -17 -56 -227 -56
-175 0 -240 8 -293 35 -38 19 -81 35 -96 35 -16 0 -23 9 -16 20 13 22 -46 5
-83 -24 -13 -10 -46 -12 -73 -5 -30 7 -69 1 -97 -17 -26 -16 -67 -27 -91 -25
-24 2 -40 -3 -34 -12 6 -10 1 -17 -10 -17 -11 0 -25 9 -32 20 -22 35 -48 21
-40 -21 4 -22 0 -35 -11 -29 -10 7 -35 3 -56 -9 -29 -15 -45 -13 -64 10 -21
26 -27 26 -47 0 -33 -43 -160 -60 -194 -26 -15 15 -35 29 -43 31 -93 21 -243
115 -226 142 4 8 -9 13 -29 13 -20 0 -32 -8 -25 -18 11 -18 -28 -14 -182 17
-31 6 -51 4 -46 -6 6 -9 -29 -15 -78 -12 -51 3 -100 -6 -114 -20 -14 -13 -50
-41 -80 -61 -77 -50 -175 -411 -112 -411 9 0 17 -14 17 -31 0 -17 -9 -26 -20
-19 -11 7 -20 3 -20 -8 0 -11 9 -25 20 -32 11 -7 20 -33 20 -59 0 -26 13 -52
30 -58 16 -7 30 -25 30 -41 0 -53 163 -149 217 -129 26 9 54 13 63 7 9 -5 21
5 28 23 7 18 18 28 24 22 6 -6 33 0 60 14 27 14 78 21 113 16 36 -5 108 -10
160 -11 52 -1 95 -11 95 -23 1 -14 6 -14 15 -1 20 27 131 28 150 1 9 -13 15
-10 15 9 1 23 8 21 31 -9 19 -25 29 -29 29 -11 0 14 6 21 13 14 7 -8 26 -3 41
9 15 12 33 17 40 10 7 -7 24 -3 39 10 15 12 27 15 27 7 0 -8 15 -3 34 13 23
18 29 19 19 2 -10 -15 -4 -25 14 -25 16 0 33 -11 38 -25 7 -20 16 -19 41 2 74
61 212 49 150 -13 -19 -19 -19 -29 0 -48 31 -31 31 -101 -1 -135 -20 -21 -20
-24 0 -13 16 9 32 -4 44 -35 24 -64 3 -333 -27 -333 -12 0 -9 -9 7 -19 23 -14
24 -24 3 -48 -18 -23 -19 -41 -3 -71 17 -32 16 -39 -4 -31 -28 10 -24 -172 4
-191 8 -5 21 -35 28 -65 13 -52 0 -66 -52 -57 -8 1 -15 -8 -15 -19 0 -12 -11
-16 -25 -9 -14 7 -9 0 10 -16 19 -15 40 -68 47 -117 11 -76 19 -89 61 -93 l50
-4 -10 275 c-32 892 -1 1166 126 1113 17 -7 42 -13 56 -14 14 0 25 -11 25 -23
0 -12 18 -24 40 -26 22 -1 40 6 40 16 0 11 20 11 49 -1 27 -10 67 -15 89 -10
37 7 80 -82 65 -138 -3 -9 9 -33 27 -52 18 -20 25 -49 17 -69 -17 -46 56 -26
125 35 46 40 69 109 28 84 -11 -7 -20 -3 -20 9 0 12 -21 30 -46 39 -26 10 -47
36 -48 62 -3 28 5 40 22 34 13 -6 36 8 50 30 26 42 141 38 196 -8 13 -10 34
-13 46 -6 12 7 35 2 51 -11 17 -14 35 -20 41 -14 6 6 38 4 70 -6 32 -9 54 -9
49 0 -6 9 7 21 28 26 51 14 223 -6 211 -24 -4 -8 4 -14 20 -14 16 0 24 6 19
14 -5 8 5 20 21 26 17 7 30 1 31 -13 0 -13 14 -6 30 16 25 32 34 34 47 13 10
-16 20 -19 25 -7 4 12 39 14 87 6 44 -8 98 -5 120 5 22 11 57 27 77 37 63 32
230 24 255 -11 19 -25 187 -43 171 -18 -20 33 108 49 155 18 67 -43 132 -53
132 -21 0 25 24 37 65 30 8 -1 52 13 97 31 87 35 117 21 118 -54 0 -16 18 -46
40 -64 22 -19 40 -25 40 -14 0 14 14 13 40 -1 23 -12 49 -17 58 -11 23 14 47
-113 30 -157 -7 -19 1 -49 18 -68 17 -19 42 -77 55 -130 17 -68 33 -94 55 -90
30 6 50 90 25 105 -7 5 -15 43 -18 85 -2 42 -21 112 -42 156 -55 117 -71 210
-37 210 38 0 76 -41 76 -81 0 -17 23 -53 50 -79 28 -26 50 -59 50 -73 0 -15 8
-27 17 -27 19 0 16 -111 -4 -165 -31 -84 -31 -95 3 -96 32 0 32 -1 0 -20 -29
-17 -33 -44 -26 -169 5 -82 0 -154 -10 -160 -10 -6 -13 -26 -6 -44 9 -22 5
-28 -11 -18 -12 8 -23 6 -23 -4 0 -11 -16 -25 -35 -32 -19 -6 -48 -18 -63 -25
-17 -8 -22 -4 -14 10 8 13 2 23 -13 23 -16 0 -29 11 -31 25 -7 74 -17 107 -42
138 -16 19 -32 69 -36 111 -4 42 -13 90 -19 106 -7 17 -16 42 -19 57 -9 47
-28 51 -28 5 0 -26 -9 -39 -21 -31 -11 7 -17 39 -12 71 5 32 2 62 -7 68 -34
21 -34 -159 0 -210 56 -81 77 -179 77 -359 2 -364 62 -441 180 -229 63 114 73
123 160 140 l93 18 -5 100 c-2 55 5 145 15 200 10 55 20 244 22 420 2 274 8
339 47 450 68 200 49 296 -87 438 -45 47 -82 97 -82 112 0 14 -27 49 -59 76
-32 27 -53 55 -46 62 7 7 -5 10 -26 6 -52 -8 -164 -68 -172 -92 -19 -52 -167
-33 -173 23 -8 63 -34 68 -137 25 -56 -23 -69 -39 -61 -70 8 -30 0 -40 -28
-40 -30 0 -38 14 -38 68 0 42 -11 72 -30 79 -16 7 -30 2 -30 -10 0 -13 -28
-18 -70 -13 -38 4 -70 0 -70 -9 0 -10 -7 -13 -17 -7 -52 32 25 181 95 182 18
0 35 20 38 45 8 53 -10 57 -58 13 -50 -45 -80 -18 -74 67 6 92 72 164 165 179
109 17 106 46 -6 46 -67 0 -98 -8 -96 -25 2 -14 -6 -25 -17 -25 -11 0 -19 11
-17 25 1 14 -17 25 -40 25 -40 0 -43 -10 -43 -138 0 -103 -9 -148 -35 -176
-19 -21 -40 -67 -47 -101 -7 -35 -30 -78 -50 -97 -21 -19 -38 -55 -38 -80 0
-38 -7 -44 -39 -32 -21 8 -38 22 -38 32 0 10 -14 26 -31 36 -41 23 -41 84 -1
145 43 65 88 241 75 291 -7 28 -1 40 22 40 17 0 32 -13 32 -30 0 -35 32 -40
52 -7 7 12 -1 31 -19 41 -18 10 -33 31 -33 47 0 19 -22 29 -65 29 -65 0 -65 0
-66 -105z m290 -503 c18 -23 16 -33 -13 -50 -28 -16 -29 -21 -6 -23 93 -6 136
-25 185 -83 30 -36 55 -81 55 -100 0 -20 14 -36 30 -36 17 0 30 -9 30 -20 0
-11 -13 -20 -30 -20 -23 0 -30 -25 -30 -101 0 -136 64 -138 80 -3 13 109 123
193 171 130 42 -55 35 -82 -31 -116 -92 -47 -54 -109 48 -78 37 11 35 5 -14
-45 -53 -55 -57 -56 -111 -25 -50 29 -63 29 -112 3 -124 -64 -208 177 -103
293 47 52 41 89 -13 75 -25 -7 -118 -13 -208 -13 -144 0 -163 -4 -173 -39 -7
-28 2 -41 33 -47 43 -9 43 -9 -2 -24 -58 -19 -67 -176 -12 -207 30 -16 29 -20
-8 -40 -48 -26 -168 20 -124 48 16 10 20 49 13 122 -6 59 -5 107 2 108 8 0 29
21 48 47 34 46 33 46 -38 44 -66 -2 -119 37 -62 45 35 5 140 17 174 20 16 2
23 9 15 16 -28 29 65 70 107 47 43 -23 62 24 20 50 -11 7 -20 1 -20 -12 0 -14
-6 -19 -12 -12 -7 7 -8 26 -1 43 15 39 80 40 112 3z m-3214 -532 c15 0 12 -11
-7 -31 -27 -27 -38 -27 -86 -2 -35 19 -47 34 -32 43 15 10 21 71 17 182 -5
147 -1 171 34 196 38 28 39 23 45 -180 4 -143 13 -208 29 -208z m1118 -2 c14
-9 5 -23 -24 -39 -35 -18 -49 -19 -55 -2 -9 29 -89 30 -117 2 -14 -14 -37 -11
-75 8 -32 17 -46 34 -33 42 28 18 27 165 -2 183 -16 10 -12 22 13 41 59 42 90
-2 90 -127 0 -101 3 -108 45 -102 52 7 74 172 37 278 -17 50 -13 62 34 99 l54
43 6 -206 c3 -122 14 -212 27 -220z m823 301 c-12 -101 7 -126 52 -71 18 21
34 23 68 7 103 -49 17 -375 -98 -375 -38 0 -35 20 6 51 47 34 52 259 6 259
-37 0 -53 -121 -21 -159 16 -19 14 -32 -6 -49 -37 -30 -143 20 -111 52 13 13
19 87 15 179 -6 137 -2 161 33 190 57 48 70 29 56 -84z m1970 -295 c29 6 34
33 37 175 2 152 7 173 50 207 l47 39 6 -213 c4 -170 11 -212 35 -212 21 0 29
24 29 90 0 84 5 92 78 129 l78 40 34 -51 c18 -28 30 -54 27 -57 -39 -33 -95
-49 -86 -25 6 15 -3 39 -21 54 -28 23 -31 17 -27 -52 6 -97 52 -139 102 -93
19 17 41 26 47 19 46 -45 -125 -125 -180 -84 -32 24 -45 24 -94 -1 -47 -24
-65 -25 -98 -5 -31 20 -48 20 -79 1 -31 -19 -49 -18 -91 3 -31 17 -44 33 -31
41 29 18 27 285 -2 303 -16 10 -4 30 35 61 l58 47 6 -212 c5 -187 9 -210 40
-204z m-4314 351 c34 -35 41 -37 32 -10 -7 19 -4 35 7 35 21 0 25 -20 19 -115
-3 -64 -1 -65 48 -42 63 28 67 68 11 98 -33 17 -37 28 -18 50 71 86 139 -4
139 -181 l0 -144 -89 -48 c-54 -28 -92 -63 -95 -88 -10 -68 -124 -56 -132 15
-7 60 -23 68 -60 31 -18 -18 -24 -19 -24 0 0 13 18 35 40 49 49 30 58 146 10
128 -18 -7 -30 0 -30 18 0 17 14 35 30 42 19 7 30 38 30 81 0 54 -7 68 -30 59
-42 -16 -38 21 5 45 50 29 58 27 107 -23z m1316 -2 c39 -47 -30 -89 -74 -46
-30 30 -30 37 -4 53 40 26 51 25 78 -7z m1678 -16 c8 -41 -53 -65 -89 -35 -21
18 -22 30 -4 52 30 35 85 26 93 -17z m-1845 -97 c16 0 29 -9 29 -20 0 -11 -13
-20 -30 -20 -47 0 -42 -194 5 -204 31 -7 30 -11 -8 -32 -47 -26 -172 18 -128
45 28 17 27 165 -1 182 -13 8 0 35 35 73 54 56 57 57 63 18 4 -23 20 -42 35
-42z m2029 40 c0 -25 13 -40 35 -40 30 -1 28 -6 -10 -35 -49 -39 -54 -175 -8
-203 52 -32 -32 -72 -88 -42 -38 21 -60 21 -99 3 -39 -17 -60 -17 -89 1 -30
19 -49 18 -90 -4 -70 -37 -97 -7 -99 114 -3 148 -62 135 -62 -14 0 -86 -7
-111 -33 -116 -47 -9 -65 31 -59 133 3 57 -4 94 -21 105 -21 13 -18 23 13 46
30 21 47 23 67 7 19 -17 36 -16 63 0 29 18 42 17 61 -7 14 -16 37 -25 52 -20
32 13 35 -12 6 -41 -40 -40 -14 -156 36 -163 52 -8 70 163 20 182 -17 7 -13
19 15 40 58 44 87 9 94 -113 9 -153 85 -155 88 -2 3 133 108 297 108 169z
m-2516 -69 c6 6 7 -30 1 -80 -6 -54 -1 -102 13 -118 33 -40 -26 -88 -66 -54
-22 18 -38 18 -69 -2 -77 -48 -143 65 -72 124 21 17 24 32 10 46 -62 62 53
151 130 101 23 -16 47 -23 53 -17z m296 23 c0 -9 -10 -35 -22 -57 -16 -30 -16
-47 0 -63 64 -64 -39 -195 -127 -162 -21 8 -31 1 -31 -24 0 -34 -2 -34 -33 -3
-31 30 -31 36 3 88 25 37 29 57 13 63 -46 15 -25 104 34 139 59 36 163 48 163
19z m720 -34 c-17 -32 -37 -41 -71 -35 -52 10 -51 3 27 -100 80 -107 114 -89
105 56 -4 78 48 119 164 129 63 6 62 8 32 -60 -18 -39 -18 -57 0 -75 61 -61
-36 -186 -128 -163 -33 8 -48 2 -55 -25 -9 -33 -11 -32 -24 8 -16 48 -40 58
-60 25 -25 -41 -62 -18 -108 66 -58 107 -25 206 73 218 71 9 73 7 45 -44z
m501 28 c30 -35 -9 -76 -56 -58 -17 6 -25 -16 -25 -73 0 -76 3 -81 50 -72 61
12 64 -6 9 -56 -69 -62 -148 0 -153 121 -4 84 1 95 60 131 77 47 82 47 115 7z
m1499 18 c0 -2 -11 -27 -23 -56 -18 -39 -18 -57 0 -75 65 -65 -35 -188 -133
-162 -32 9 -44 3 -44 -22 0 -18 -9 -28 -20 -21 -30 19 -24 82 11 111 21 17 24
32 10 46 -41 41 -23 122 34 154 44 25 165 43 165 25z"/>
<path d="M543 4417 c-3 -110 36 -157 130 -157 4 0 7 32 7 71 l0 70 -60 -31
c-33 -17 -60 -23 -60 -13 0 10 27 29 60 43 33 14 60 33 60 42 0 26 -25 22 -74
-12 -42 -29 -44 -28 -52 35 -5 41 -9 23 -11 -48z"/>
<path d="M1013 4426 c-23 -23 -14 -39 37 -62 41 -19 50 -18 50 6 0 32 -68 76
-87 56z"/>
<path d="M1043 4299 c4 -25 19 -50 34 -55 18 -6 24 6 20 37 -4 25 -19 50 -34
55 -18 6 -24 -6 -20 -37z"/>
<path d="M1340 4401 c0 -23 13 -41 29 -41 48 0 55 37 12 60 -35 18 -41 15 -41
-19z"/>
<path d="M1334 4307 c-24 -24 -15 -42 27 -53 30 -8 40 -2 35 21 -7 35 -41 53
-62 32z"/>
<path d="M2321 4291 c-22 -27 -18 -31 28 -31 33 0 51 9 46 24 -12 37 -47 40
-74 7z"/>
<path d="M4054 4307 c-24 -24 -15 -42 27 -53 30 -8 40 -2 35 21 -7 35 -41 53
-62 32z"/>
<path d="M4994 5352 c-32 -25 -29 -29 38 -41 41 -8 79 -7 86 3 15 19 115 20
135 0 24 -24 45 -16 67 26 27 50 -261 60 -326 12z"/>
<path d="M5644 5341 c60 -95 179 -105 161 -13 -9 47 -19 52 -98 52 -81 0 -86
-3 -63 -39z"/>
<path d="M2517 5286 c-41 -5 -78 -21 -84 -36 -7 -18 -1 -24 18 -17 16 6 29 1
29 -12 0 -13 9 -18 20 -11 11 7 20 -1 20 -17 0 -34 54 -60 70 -33 6 9 9 45 6
79 -2 33 -5 59 -5 58 -1 -2 -34 -7 -74 -11z"/>
<path d="M4481 5271 c-13 -16 -37 -24 -52 -18 -18 7 -29 -2 -29 -23 0 -25 11
-32 40 -24 25 6 35 2 27 -11 -26 -42 -21 -153 8 -164 21 -8 27 7 25 64 -6 128
-7 128 85 121 l85 -6 -6 -90 c-5 -84 -4 -87 24 -50 35 46 42 26 12 -31 -17
-31 -15 -36 9 -26 17 6 26 19 21 28 -6 9 -2 22 10 29 11 7 20 -3 20 -21 0 -29
5 -30 33 -6 31 24 31 23 9 -19 -13 -25 -46 -56 -73 -68 -67 -30 -62 -56 11
-56 33 0 60 9 60 20 0 11 32 20 72 20 79 0 86 36 12 70 -58 26 -55 40 14 69
50 21 81 68 82 126 0 8 -26 15 -57 15 -32 0 -80 18 -108 40 -64 50 -295 58
-334 11z"/>
<path d="M3079 5101 c-28 -21 -68 -36 -90 -35 -34 4 -40 -11 -45 -101 -6 -100
-4 -105 44 -105 37 0 48 -8 39 -30 -6 -16 -1 -30 11 -30 12 0 22 22 22 48 0
26 14 53 32 60 21 8 29 33 26 77 -3 36 5 85 19 110 30 55 10 57 -58 6z"/>
<path d="M5394 5127 c-7 -7 -58 -11 -113 -10 -235 5 -68 -51 189 -64 66 -3
193 -13 283 -21 193 -19 247 -7 233 49 -8 29 -29 39 -83 41 -40 1 -149 3 -243
6 -103 3 -176 -4 -185 -17 -10 -14 -14 -13 -15 4 0 26 -44 34 -66 12z"/>
<path d="M3360 5013 c0 -43 -8 -49 -50 -41 -64 11 -83 -32 -50 -112 18 -43 38
-60 74 -60 27 0 43 9 36 20 -7 11 -4 20 7 20 29 0 46 62 24 89 -11 13 -14 42
-8 65 6 23 1 48 -11 55 -14 8 -22 -6 -22 -36z"/>
<path d="M3629 4999 c-7 -11 -27 -16 -46 -10 -27 8 -34 -6 -37 -74 l-5 -85 42
50 c23 28 50 50 60 50 19 0 56 49 57 75 0 23 -56 18 -71 -6z"/>
<path d="M4693 3890 c-7 -17 6 -49 27 -70 31 -31 33 -40 10 -40 -17 0 -30 -18
-30 -40 0 -54 32 -51 50 5 18 56 12 101 -15 118 -11 7 -14 23 -6 35 7 12 5 22
-6 22 -10 0 -24 -14 -30 -30z"/>
<path d="M3600 3760 c22 -15 23 -19 3 -20 -14 0 -23 -10 -19 -23 11 -31 73
-40 68 -10 -6 39 -33 73 -58 73 -14 0 -12 -8 6 -20z"/>
<path d="M3231 3701 c-7 -11 -27 -14 -44 -7 -26 10 -28 5 -10 -26 48 -84 67
-101 56 -49 -6 27 -2 61 10 75 12 14 17 26 11 26 -7 0 -17 -9 -23 -19z"/>
<path d="M5559 3651 c-57 -57 7 -135 75 -91 32 21 33 22 1 12 -19 -6 -35 -2
-35 9 0 10 14 19 30 19 17 0 30 11 30 25 1 17 7 15 20 -5 15 -22 19 -23 20 -3
0 14 11 22 25 18 14 -5 22 -28 19 -52 -7 -44 24 -59 46 -23 7 11 4 20 -6 20
-10 0 -15 20 -10 45 9 49 -171 70 -215 26z"/>
<path d="M5786 3486 c5 -24 -1 -48 -13 -53 -13 -6 -9 -11 8 -11 17 -1 43 9 58
23 21 20 24 20 13 0 -10 -18 4 -24 52 -23 36 2 50 7 31 12 -19 5 -35 21 -35
36 0 17 -15 22 -42 15 -24 -6 -50 1 -62 17 -15 21 -17 17 -10 -16z"/>
<path d="M3057 3415 c-67 -57 -148 -287 -109 -310 24 -14 58 -105 39 -105 -4
0 -30 14 -57 32 -26 17 -57 26 -67 20 -38 -24 -66 41 -29 70 22 19 29 20 19 3
-9 -14 -7 -25 4 -25 10 0 24 14 31 31 6 17 3 26 -7 19 -11 -6 -28 6 -39 27
-17 30 -41 37 -126 34 -58 -2 -149 7 -201 21 -52 13 -90 16 -84 6 10 -16 -28
-38 -116 -66 -55 -17 -19 -75 43 -69 28 3 63 -1 77 -10 14 -8 33 -10 44 -4 10
6 24 3 31 -9 7 -11 34 -20 60 -20 89 0 228 -74 225 -119 -3 -37 -17 -41 -125
-41 -134 0 -234 -44 -163 -71 20 -8 44 -37 55 -63 17 -45 25 -48 103 -35 109
18 111 19 131 94 l16 62 43 -47 c29 -30 40 -62 33 -89 -6 -24 -14 -61 -18 -82
-4 -22 -8 -39 -10 -39 -2 0 -6 -20 -8 -44 -3 -24 2 -40 11 -34 10 6 17 1 17
-10 0 -11 -16 -29 -35 -39 -31 -18 -31 -23 -4 -56 17 -21 30 -74 30 -120 -1
-46 6 -79 14 -74 8 5 10 -3 4 -18 -6 -15 -12 -63 -15 -106 -3 -68 -11 -80 -54
-85 -45 -5 -122 -104 -81 -104 8 0 39 -23 69 -50 30 -28 75 -50 101 -50 69 0
95 -42 63 -103 -22 -41 -22 -50 0 -50 14 0 22 7 16 16 -6 10 0 17 12 17 13 0
36 14 53 30 65 65 121 26 158 -110 18 -64 47 -100 80 -100 49 0 52 76 7 174
-25 53 -45 134 -46 180 -2 109 -41 123 -207 75 -47 -14 -108 84 -69 109 10 7
24 68 31 138 6 69 20 140 30 157 10 19 10 66 -1 115 -11 45 -15 118 -9 162 6
44 4 132 -5 195 -13 98 -10 116 18 125 50 16 85 104 60 150 -29 53 -25 130 11
215 20 49 24 77 10 81 -12 4 -16 16 -10 26 18 29 3 21 -54 -27z"/>
<path d="M3926 3371 c-13 -15 -17 -33 -10 -41 8 -8 -123 -11 -291 -5 -303 10
-342 2 -287 -56 10 -11 10 -36 -1 -59 -16 -36 -17 -36 -9 6 6 29 0 43 -15 38
-37 -12 -39 -71 -3 -106 17 -18 37 -59 43 -90 7 -31 24 -67 39 -80 31 -25 38
-118 10 -118 -85 0 -19 -138 92 -190 42 -20 65 -40 51 -45 -14 -5 -20 -17 -14
-27 15 -24 89 -23 89 2 0 11 -10 20 -21 20 -12 0 -16 9 -9 20 22 35 147 14
144 -24 -1 -18 -12 -27 -23 -20 -49 31 -67 18 -60 -41 8 -63 29 -102 29 -55 0
18 10 15 28 -10 25 -35 30 -33 68 41 22 44 48 77 57 74 9 -3 17 20 17 50 0 47
-9 56 -60 60 -121 11 -206 48 -215 96 -23 118 86 146 187 47 62 -60 195 -75
213 -23 23 63 43 73 80 39 21 -19 45 -27 53 -19 8 8 43 16 78 18 144 7 204 35
204 95 0 51 -8 57 -76 63 -42 4 -123 30 -180 58 -66 31 -150 53 -230 58 -165
10 -173 24 -31 54 245 50 372 38 396 -38 8 -27 26 -38 52 -33 21 4 39 -3 39
-15 0 -17 6 -17 23 0 38 38 -37 185 -93 185 -25 0 -78 23 -118 50 -82 55 -206
66 -246 21z m159 -356 c146 -70 136 -114 -15 -61 -49 18 -162 29 -295 29 -222
1 -245 11 -184 78 54 60 325 34 494 -46z"/>
<path d="M5474 3250 c-79 -57 -33 -146 83 -160 l85 -11 -6 72 c-7 87 -101 144
-162 99z"/>
<path d="M2103 3087 c-13 -14 -39 -20 -58 -13 -31 12 -32 9 -8 -20 24 -29 23
-34 -5 -34 -17 0 -32 -7 -32 -15 0 -25 130 -13 133 12 1 13 3 32 5 43 1 11 9
19 17 18 39 -7 66 4 56 21 -16 25 -79 18 -108 -12z"/>
<path d="M5369 2939 c-28 -45 -15 -48 376 -69 l255 -13 0 51 0 52 -309 0
c-197 0 -313 -8 -322 -21z"/>
<path d="M5180 2867 l-70 -31 70 -24 c134 -47 182 -328 98 -570 -32 -91 -10
-122 30 -45 55 105 84 394 56 545 -30 164 -57 182 -184 125z"/>
<path d="M2287 2810 c0 -15 8 -23 18 -17 11 7 14 -5 6 -29 -12 -40 55 -85 84
-56 23 23 22 112 -1 113 -13 1 -43 6 -66 10 -26 5 -41 -3 -41 -21z"/>
<path d="M4245 2707 c-36 -42 -65 -83 -65 -91 0 -9 -13 -16 -30 -16 -39 0 -38
-28 3 -62 28 -24 43 -15 120 72 80 91 113 148 69 121 -11 -6 -22 3 -25 20 -5
23 -25 11 -72 -44z"/>
<path d="M5458 2717 c-1 -4 -5 -90 -8 -191 -4 -100 -16 -213 -27 -250 -11 -36
-32 -106 -46 -154 -49 -169 -250 -346 -356 -312 -64 20 -170 299 -124 328 80
52 34 426 -48 394 -15 -5 -30 1 -35 14 -5 13 -9 -37 -9 -111 0 -74 8 -135 18
-135 9 0 16 -7 14 -15 -2 -8 4 -32 13 -52 11 -27 6 -43 -17 -56 -39 -22 -43
-59 -10 -92 40 -40 56 -230 31 -351 -14 -65 -11 -75 17 -70 29 5 34 -27 42
-284 4 -159 27 -420 50 -580 50 -350 43 -523 -28 -682 l-50 -111 88 0 c48 0
88 5 89 11 1 7 4 39 6 72 2 33 11 73 21 88 9 15 20 59 23 98 3 38 17 77 31 86
29 18 41 172 17 217 -9 16 -8 50 2 76 10 28 10 43 0 36 -20 -12 -49 49 -31 66
6 7 20 -1 30 -18 14 -23 18 -19 19 17 0 26 -7 42 -15 37 -8 -5 -16 15 -16 44
-1 29 -7 114 -14 188 -9 101 -6 133 11 124 13 -7 7 2 -13 18 -20 17 -31 40
-24 52 8 12 0 27 -17 33 -27 10 -26 18 4 64 19 29 23 46 9 37 -30 -18 -33 23
-6 66 12 18 12 34 1 41 -11 7 -13 45 -7 85 7 41 20 69 29 64 10 -6 12 3 6 20
-8 20 -1 31 22 31 18 0 62 27 97 60 35 33 70 59 80 58 37 -2 171 212 204 327
2 8 6 17 8 20 2 3 9 32 14 65 5 32 19 70 31 85 11 14 14 25 6 25 -8 0 -5 12 8
27 12 16 17 45 9 65 -7 21 -6 31 3 24 8 -8 30 13 49 47 18 34 39 60 47 59 8
-1 46 -2 84 -2 39 0 68 -7 65 -15 -3 -8 4 -15 15 -15 11 0 18 7 15 16 -3 9 10
15 30 13 75 -8 85 1 85 78 l0 77 -235 11 c-129 6 -251 18 -270 25 -19 8 -36
11 -37 7z"/>
<path d="M4990 2635 c-30 -43 -28 -48 44 -114 63 -58 75 -84 78 -157 8 -201
94 -130 105 87 l7 145 -94 42 c-115 51 -101 51 -140 -3z"/>
<path d="M1720 2626 c0 -10 8 -27 18 -37 10 -10 22 -37 28 -59 7 -29 10 -23
13 20 3 52 6 55 21 20 16 -38 17 -38 19 5 0 25 -7 45 -17 45 -10 0 -33 5 -50
12 -18 7 -32 4 -32 -6z"/>
<path d="M4084 2451 c-21 -27 -43 -45 -48 -40 -5 5 -9 -4 -9 -21 0 -50 95 27
108 87 8 36 -9 27 -51 -26z"/>
<path d="M1914 2465 c-14 -22 22 -105 44 -105 34 0 45 38 22 80 -22 41 -51 52
-66 25z"/>
<path d="M1789 2249 c-22 -18 -28 -26 -14 -19 19 9 25 -20 25 -114 1 -89 6
-117 20 -96 15 23 19 17 20 -26 0 -31 -14 -70 -30 -87 -17 -17 -24 -40 -17
-52 9 -14 19 -8 29 16 13 33 15 31 17 -14 0 -30 -10 -58 -24 -64 -15 -6 -11
-10 10 -11 21 -1 35 -18 35 -42 0 -46 18 -50 66 -15 31 24 29 115 -3 115 -7 0
-16 50 -19 111 -3 61 -15 134 -26 163 -11 29 -14 78 -7 109 14 66 -20 76 -82
26z"/>
<path d="M4995 2266 c-37 -9 -46 -37 -18 -54 28 -18 103 11 103 40 0 28 -20
31 -85 14z"/>
<path d="M2783 2153 c-13 -15 -17 -33 -9 -40 7 -7 2 -13 -11 -13 -12 0 -23 -9
-23 -20 0 -11 14 -20 30 -20 28 0 39 25 31 68 -2 10 9 26 23 35 16 10 17 17 3
17 -12 0 -32 -12 -44 -27z"/>
<path d="M3707 2100 c14 -71 61 -133 161 -215 49 -40 53 -31 45 100 -7 124 -8
125 -70 131 -35 4 -63 15 -63 25 0 11 -19 19 -42 19 -37 0 -41 -8 -31 -60z"/>
<path d="M3400 2066 c-16 -7 -52 -20 -80 -30 -74 -28 -3 -77 89 -62 36 6 72 1
79 -10 17 -27 -8 -87 -30 -73 -10 6 -18 2 -18 -10 0 -40 50 -20 113 44 107
112 9 202 -153 141z"/>
<path d="M3943 1747 c4 -20 24 -40 44 -44 26 -5 35 4 30 30 -4 20 -24 40 -44
44 -26 5 -35 -4 -30 -30z"/>
<path d="M2930 1600 c-7 -11 -3 -20 9 -20 12 0 18 -22 12 -52 -7 -40 -3 -47
17 -30 14 12 30 18 35 13 5 -5 10 8 12 30 3 44 -65 92 -85 59z"/>
<path d="M2075 1584 c-19 -4 -36 -18 -37 -30 -1 -13 -4 -49 -7 -79 -4 -42 4
-55 32 -55 20 0 37 -10 37 -21 0 -12 9 -16 20 -9 11 7 20 3 20 -9 0 -11 9 -21
19 -21 11 0 15 13 9 28 -6 15 -1 34 11 41 11 7 21 32 21 56 0 23 -6 36 -13 28
-8 -7 -28 7 -45 33 -19 26 -47 43 -67 38z"/>
<path d="M3034 1447 c-26 -25 -14 -64 21 -72 33 -8 -47 -57 -105 -64 -45 -5
-110 -35 -110 -51 0 -9 -15 -20 -34 -24 -31 -6 -30 -9 2 -41 41 -41 75 -29 59
21 -7 19 14 5 46 -31 57 -64 59 -64 98 -27 31 30 95 43 309 63 432 41 498 39
582 -26 39 -30 78 -55 86 -55 13 0 35 -17 98 -71 35 -32 112 -48 125 -27 6 10
2 18 -10 18 -11 0 -21 10 -21 21 0 12 9 16 20 9 11 -7 20 2 20 20 0 19 -11 29
-25 25 -14 -5 -36 10 -49 33 -21 36 -25 37 -25 7 -1 -36 -59 -50 -63 -15 -2
11 -5 29 -8 40 -3 11 -6 29 -7 40 -2 11 -16 20 -31 20 -16 0 -56 23 -88 50
-44 37 -83 50 -149 50 -53 0 -138 21 -207 52 -90 40 -135 49 -197 39 -128 -20
-176 -21 -252 -5 -40 8 -78 8 -85 1z"/>
<path d="M3984 1425 c3 -19 21 -37 40 -41 24 -5 30 4 22 35 -13 50 -72 56 -62
6z"/>
<path d="M4679 1348 c-21 -50 -39 -100 -39 -112 0 -33 -138 -312 -162 -327
-16 -10 -16 -18 0 -28 16 -10 11 -30 -17 -66 -23 -28 -41 -60 -41 -70 0 -10
-23 -29 -51 -42 -28 -13 -46 -31 -40 -41 6 -10 -3 -23 -19 -29 -17 -7 -29 -19
-28 -27 7 -45 -5 -69 -31 -59 -31 12 -79 -33 -57 -54 7 -7 -2 -13 -19 -13 -18
0 -46 -14 -64 -32 -17 -17 -56 -38 -86 -46 -60 -16 -84 -85 -46 -131 19 -23
-2 -26 -126 -17 -86 6 -176 2 -212 -11 -52 -18 -76 -14 -159 28 -54 27 -106
49 -115 49 -10 0 -28 17 -41 37 -31 51 -88 63 -158 32 -38 -17 -46 -26 -23
-27 19 -1 34 -9 33 -17 -6 -38 5 -45 40 -26 30 16 40 12 48 -19 6 -24 27 -40
52 -40 23 0 42 -7 42 -16 0 -26 166 -96 224 -94 29 1 50 -4 45 -12 -5 -7 18
-17 51 -22 36 -6 60 0 60 13 0 12 19 24 42 26 37 2 38 -1 12 -21 -75 -60 -55
-135 24 -86 15 10 60 19 100 20 66 2 72 7 72 62 0 54 6 59 55 54 42 -4 60 6
78 44 12 27 39 53 59 58 21 6 38 25 38 43 0 18 8 29 17 23 35 -22 107 51 95
97 -6 25 2 62 18 83 16 21 29 32 29 24 1 -8 26 9 56 37 30 29 53 60 50 69 -3
10 4 18 15 18 11 0 19 7 17 15 -5 24 28 93 52 110 14 10 14 14 -2 15 -17 0
-15 18 6 60 18 36 40 55 54 47 12 -7 16 -6 8 3 -8 9 2 44 23 78 65 108 113
297 104 407 -4 54 -45 21 -83 -67z"/>
<path d="M2205 1260 c-33 -52 -31 -90 5 -120 17 -14 30 -45 30 -69 0 -24 5
-50 12 -56 18 -18 69 6 57 27 -6 10 3 12 20 6 47 -18 37 19 -19 72 -38 36 -48
63 -43 114 8 75 -23 88 -62 26z"/>
<path d="M2998 1012 c16 -18 41 -29 56 -23 16 6 48 -12 72 -39 35 -40 65 -51
144 -55 62 -2 111 -16 130 -36 44 -48 157 -103 228 -110 34 -4 85 -13 112 -20
47 -12 141 -15 152 -4 23 24 13 185 -12 187 -17 1 -53 8 -81 16 -65 18 -159
-17 -159 -61 0 -30 -3 -30 -35 -3 -19 17 -48 26 -63 21 -19 -7 -25 0 -17 20
37 96 -237 153 -364 75 -27 -16 -43 -20 -35 -7 7 12 1 33 -14 46 -20 16 -33
16 -41 2 -9 -15 -27 -14 -57 2 -40 22 -42 21 -16 -11z"/>
<path d="M2350 900 c-25 -40 -27 -99 -4 -95 13 3 23 -11 21 -31 -4 -53 46 -5
58 56 13 67 -44 120 -75 70z"/>
<path d="M2680 530 c0 -16 11 -30 25 -31 14 0 44 -29 67 -65 22 -35 52 -62 65
-59 13 3 32 -17 43 -45 10 -27 28 -50 40 -50 11 0 19 -7 18 -15 -6 -39 4 -48
30 -27 24 20 21 32 -19 75 -27 29 -43 60 -38 69 6 10 -1 13 -15 8 -14 -5 -46
21 -71 60 -25 39 -59 70 -76 70 -17 0 -26 9 -19 20 7 11 -2 20 -19 20 -17 0
-31 -13 -31 -30z"/>
<path d="M2374 248 c-25 -25 -15 -83 16 -95 32 -12 36 13 13 73 -8 20 -21 30
-29 22z"/>
</g>
</svg>
